<?xml version="1.0" encoding="UTF-8" standalone="no"?>
<svg width="55px" height="26px" viewBox="0 0 55 26" version="1.1" xmlns="http://www.w3.org/2000/svg" xmlns:xlink="http://www.w3.org/1999/xlink">
    <defs>
        <filter x="-50%" y="-50%" width="200%" height="200%" filterUnits="objectBoundingBox" id="filter-1">
            <feOffset dx="0" dy="1" in="SourceAlpha" result="shadowOffsetOuter1"></feOffset>
            <feGaussianBlur stdDeviation="1.5" in="shadowOffsetOuter1" result="shadowBlurOuter1"></feGaussianBlur>
            <feColorMatrix values="0 0 0 0 0   0 0 0 0 0   0 0 0 0 0  0 0 0 0.21 0" in="shadowBlurOuter1" type="matrix" result="shadowMatrixOuter1"></feColorMatrix>
            <feMerge>
                <feMergeNode in="shadowMatrixOuter1"></feMergeNode>
                <feMergeNode in="SourceGraphic"></feMergeNode>
            </feMerge>
        </filter>
    </defs>
    <g stroke="none" stroke-width="1" fill="none" fill-rule="evenodd" filter="url(#filter-1)">
        <g transform="translate(-580.000000, -460.000000)" fill="#84BDFF">
            <g transform="translate(240.000000, 188.000000)">
                <g transform="translate(33.000000, 126.000000)">
                    <g transform="translate(0.000000, 141.000000)">
                        <path d="M342.009337,16.6983055 C342.362005,16.5762036 343.185878,16.0975398 343.185878,16.0975398 C343.185878,16.0975398 348.936718,13.0311125 350.062057,12.4929947 C351.187396,11.9548769 352.237052,11.6823663 353.110404,11.5759962 C353.983756,11.4696262 354.939918,11.5452276 356.103782,11.6534361 C357.267646,11.7616447 360.009368,12.2810203 360.38597,12.5085818 C360.762573,12.7361434 360.929196,12.9116663 360.963953,13.3342714 C360.99871,13.7568765 360.793798,13.8939272 360.524015,14.1870539 C360.254233,14.4801806 359.625911,14.8330811 359.18356,15.1107941 C358.741209,15.3885071 334.401469,29.4465543 333.139505,30.1583414 C331.877541,30.8701284 331.718826,30.9162032 330.219918,31.4471912 C328.72101,31.9781791 328.195503,32.1531796 326.920063,32.3615779 C325.644623,32.5699761 324.625179,32.4437018 323.305683,32.3615775 C321.986186,32.2794533 320.799232,31.939361 319.584972,31.5662066 C318.370712,31.1930522 310.174241,26.4357031 310.174241,26.4357031 L312.303722,24.761881 C312.303722,24.761881 321.349001,27.2323788 322.866878,27.232379 C324.384754,27.2323792 332.780676,22.1300369 332.780676,22.1300369 L317.657732,15.9446376 C317.657732,15.9446376 319.80707,13.4005742 320.338954,13.4005743 C320.870838,13.4005744 341.040966,16.8401579 341.040966,16.8401579 C341.040966,16.8401579 341.647035,16.8237429 342.009337,16.6983055 Z" transform="translate(335.571022, 22.000000) scale(-1, 1) rotate(30.000000) translate(-335.571022, -22.000000) "></path>
                    </g>
                </g>
            </g>
        </g>
    </g>
</svg>