<?xml version="1.0" encoding="UTF-8" standalone="no"?>
<svg width="51px" height="22px" viewBox="0 0 51 22" version="1.1" xmlns="http://www.w3.org/2000/svg" xmlns:xlink="http://www.w3.org/1999/xlink">
    <defs></defs>
    <g stroke="none" stroke-width="1" fill="none" fill-rule="evenodd">
        <g transform="translate(-583.000000, -324.000000)" fill="#1E6ECC">
            <g transform="translate(240.000000, 188.000000)">
                <g transform="translate(33.000000, 126.000000)">
                    <g>
                        <path d="M342.023886,15.8426441 C342.377351,15.7202663 343.203086,15.2405208 343.203086,15.2405208 C343.203086,15.2405208 348.966921,12.1671642 350.094803,11.6278304 C351.222685,11.0884966 352.274713,10.8153702 353.150038,10.7087597 C354.025364,10.6021493 354.983687,10.6779216 356.150181,10.7863746 C357.316675,10.8948277 360.064593,11.4153769 360.442046,11.6434527 C360.819499,11.8715285 360.986499,12.047448 361.021335,12.4710081 C361.05617,12.8945683 360.850795,13.0319286 360.580403,13.3257177 C360.31001,13.6195069 359.680269,13.9732047 359.236918,14.2515453 C358.793568,14.5298859 334.398826,28.6197008 333.13401,29.3330963 C331.869195,30.0464918 331.710121,30.0926707 330.207826,30.6248586 C328.705531,31.1570464 328.178836,31.3324424 326.900514,31.5413116 C325.622192,31.7501807 324.600444,31.623621 323.277966,31.5413112 C321.955487,31.4590014 320.765851,31.1181405 319.548848,30.7441429 C318.331844,30.3701453 310.11685,25.6020458 310.11685,25.6020458 L312.251143,23.9244412 C312.251143,23.9244412 321.316863,26.4005218 322.838169,26.400522 C324.359476,26.4005222 332.77437,21.2866499 332.77437,21.2866499 L317.617253,15.0872731 C317.617253,15.0872731 319.771447,12.5374608 320.304533,12.5374609 C320.837619,12.537461 341.053327,15.9848171 341.053327,15.9848171 C341.053327,15.9848171 341.660765,15.968365 342.023886,15.8426441 Z"></path>
                    </g>
                </g>
            </g>
        </g>
    </g>
</svg>